/* XPM */
static const char *wall[] = {
/* columns rows colors chars-per-pixel */
"64 64 182 2 ",
"   c #070B06",
".  c #0B0E06",
"X  c #0C0F08",
"o  c #100F06",
"O  c #0E1007",
"+  c #0E1109",
"@  c #131207",
"#  c #191407",
"$  c #14150A",
"%  c #18170A",
"&  c #17180D",
"*  c #1C1B0D",
"=  c #151710",
"-  c #171810",
";  c #1C1C12",
":  c #211E0E",
">  c #211F11",
",  c #1F2017",
"<  c #1F2118",
"1  c #24210F",
"2  c #29220F",
"3  c #242312",
"4  c #2A2613",
"5  c #2C2A15",
"6  c #25241A",
"7  c #29271B",
"8  c #2E2C19",
"9  c #322C16",
"0  c #322E19",
"q  c #3A3017",
"w  c #35321C",
"e  c #3A351D",
"r  c #3F381F",
"t  c #2E2C21",
"y  c #302E23",
"u  c #353224",
"i  c #3A3622",
"p  c #3D3921",
"a  c #373429",
"s  c #383629",
"d  c #3C392C",
"f  c #40361D",
"g  c #43391F",
"h  c #413D26",
"j  c #433D24",
"k  c #483F26",
"l  c #493E23",
"z  c #433F29",
"x  c #443D28",
"c  c #443D29",
"v  c #443F2B",
"b  c #433D2C",
"n  c #413E31",
"m  c #464026",
"M  c #464027",
"N  c #4D4327",
"B  c #4B4226",
"V  c #454128",
"C  c #444028",
"Z  c #464129",
"A  c #45412A",
"S  c #474329",
"D  c #464229",
"F  c #484329",
"G  c #48422A",
"H  c #49432A",
"J  c #49442B",
"K  c #4A452B",
"L  c #4B442B",
"P  c #4E4428",
"I  c #4D442A",
"U  c #4A432C",
"Y  c #49442D",
"T  c #4B462C",
"R  c #4B462D",
"E  c #4B452E",
"W  c #4C462C",
"Q  c #4D462D",
"!  c #4D472E",
"~  c #4C472E",
"^  c #4E472E",
"/  c #4B452B",
"(  c #4F482C",
")  c #4E492E",
"_  c #4E482E",
"`  c #514426",
"'  c #514629",
"]  c #52482B",
"[  c #514A2F",
"{  c #534A2E",
"}  c #50482D",
"|  c #554A2C",
" . c #564A2C",
".. c #544B2F",
"X. c #574C2F",
"o. c #564C2F",
"O. c #524A2D",
"+. c #594D2F",
"@. c #5A4D2E",
"#. c #454133",
"$. c #4B4534",
"%. c #4D4830",
"&. c #4E4931",
"*. c #4F4830",
"=. c #4E4932",
"-. c #4F4832",
";. c #4F4932",
":. c #4A4638",
">. c #4E493B",
",. c #504A30",
"<. c #524B30",
"1. c #534C31",
"2. c #514C32",
"3. c #534D32",
"4. c #544C31",
"5. c #564C30",
"6. c #544D32",
"7. c #554D32",
"8. c #554E33",
"9. c #554E33",
"0. c #564F33",
"q. c #574E32",
"w. c #524A35",
"e. c #534C35",
"r. c #554F35",
"t. c #574F34",
"y. c #544C32",
"u. c #584E31",
"i. c #584F32",
"p. c #5B4F30",
"a. c #584E32",
"s. c #534D3C",
"d. c #575035",
"f. c #575034",
"g. c #575036",
"h. c #585035",
"j. c #595035",
"k. c #595237",
"l. c #5A5236",
"z. c #5A5237",
"x. c #595137",
"c. c #5B5136",
"v. c #5B5438",
"b. c #5F573F",
"n. c #5D543A",
"m. c #61563B",
"M. c #63593E",
"N. c #565142",
"B. c #5A5443",
"V. c #5F5846",
"C. c #5E5949",
"Z. c #655C42",
"A. c #695E43",
"S. c #665D49",
"D. c #6C6145",
"F. c #6C624B",
"G. c #706245",
"H. c #72664A",
"J. c #75694C",
"K. c #7A6C4E",
"L. c #676150",
"P. c #6D6450",
"I. c #746953",
"U. c #796E55",
"Y. c #7B6F56",
"T. c #7C6E51",
"R. c #7E7153",
"E. c #827455",
"W. c #857658",
"Q. c #87785A",
"!. c #8B7C5D",
"~. c #8E7F60",
"^. c #8E8061",
"/. c #938364",
"(. c #988767",
"). c #9B8A6A",
"_. c #A08F6E",
"`. c #A2906F",
"'. c #A59372",
"]. c #A89776",
"[. c #AE9C7A",
"{. c #B09E7C",
/* pixels */
"% % * 3 % * * * * * : 1 3 3 3 3 4 4 4 4 5 8 9 9 0 w w w e e i p p j j h C C m m H Y ^ ) P ] ,.3.3.,.9.9.9.9.z.{ { 4.u.9.9.9.z.9.",
"% 5 3 3 % * * * * > % ; x 4 3 4 4 4 5 5 5 4 3 -.p 0 w w w e p p e 4 b.[ h C H H K ^ ^ e x U.{ 3.9.{ { r.g.X.j U U.u.9.z.z.9.g.9.",
"X > 3 3 * * * > : 3 $ + 0 5 4 5 5 5 5 5 0 : $ i e w w e i i p p 9 & x N C C K K ^ ) [ 5 6 e.{ [ r.g.g.9.9.u.q 6 w.@.z.z.z.z.z.X.",
"O % * 3 % * * * ; ; * % : 3 4 4 4 4 4 5 5 4 * 3 5 8 w 0 w i i w w 4 5 e p h h h x C H h 4 e K ^ -.-.-.,.^ ^ k 5 e I ^ ^ Y Y -.-.",
"* * * > . O . O . $ $ $ $ $ $ $ % % @ % % % * * % % % % * % * * * * : : : : 3 : : > 3 3 4 3 3 3 4 4 1 3 1 3 5 5 5 4 5 4 3 1 3 3 ",
"* * * 3 % * * * 3 * 3 3 3 3 3 3 4 3 9 0 5 5 5 0 0 0 0 9 w x e e e e e j j g e I B j B B B l B I N ] c.] I N ` ` ] ] { ` X.c.` ] ",
"* * * 4 * * % 7 0 * 3 3 4 4 4 4 3 > n e 5 0 8 w w w 9 5 #.r.e p p j j h x 0 #.B.B H ^ ^ [ I [ B h C.Z.] 9.[ 9.{ j.9.` ^ F.a.] { ",
"* * ; 4 % $ - 7 1 3 3 4 4 4 5 * ; t w 5 0 0 0 w w 9 3 y b e p p p h j j 9 s :.j B H Y ^ ^ ) B i s.s.l X.9.9.[ { 9.` x C.w.l X.,.",
"* * ; 4 . = ; : 1 3 3 3 4 5 1 - 7 7 5 8 8 w 0 w w > t u 0 e p p h h x 9 u #.e l H Y K I I I e #.$.e ] ,.9.r.{ [ | g s.$.e { 9.X.",
"* * > 3 X & * : 3 3 3 4 4 5 % - > 4 5 0 8 8 w w 4 - 7 4 e p p p j h j > t 9 g C K H ^ I ^ j 6 u 0 B 3.3.I 3.9.9.B 0 i 9 ` 9.[ } ",
"* * > 3 . % : 3 3 3 5 3 4 5 * * 4 8 0 5 w w 0 w 5 * 4 e i e p B p p p 3 9 j C H m u.] ^ I h 4 e ] [ [ ^ c.` [ 9.B 4 q ` 9.[ u.c.",
"* * > 4 * * ; 3 * + 0 i 5 5 5 5 5 5 0 * 6 $.j 0 w e e e p w - $.z.j j x m C C K 3 n H.j.I ^ I [ [ ,.X.5 #.J.@.[ [ [ { [ [ I 5 S.",
"& w 4 5 * 3 3 3 3 . & y h 4 5 5 5 8 0 3 X 7 $.m 0 w e e i p % 6 >.Z.j C h h C K 9 & >.F.u.K ) ) [ [ ..e * N.I.@.[ 3.,.3.9.{ 1 7 ",
"+ 3 3 4 * 3 3 3 3 * . - s x 3 5 5 8 8 5 % $ t n.e w e e w p 0 $ 7 B.c.j C x m m j * ; s.H.P ^ [ [ [ [ I 1 6 N.F.] 3.[ [ [ 9.j % ",
"$ % > 4 * > 3 3 3 3 % . = b 8 5 8 8 8 5 5 % + a H w e e p e i 5 $ < s.x h C m m B j * & :.u.K ) ] I I ^ m * - $.9.[ ] ] I I [ g ",
"* * 3 5 * 3 3 3 4 3 3 * @ * 5 5 8 5 0 w 8 8 : % 0 e e e e m e p w : 5 m h C m x C C j 5 3 B ^ I I [ n.I ) H 0 3 B [ ] ] X.c.B I ",
"* * 3 5 * : * 6 u 3 4 4 4 5 5 5 4 4 #.p 8 w w w w e e 9 b w.e p p h j h C h C C C K H I B B I N k V.Z.P ) ) [ [ N } ` ] F.z.B I ",
"* * 3 5 * % - 7 4 3 4 4 5 5 5 3 ; t i 9 w w w w w w 5 u b e e p p h h h e F.D.p K K K K K K N f $.>.j I I ) H I I N k N.$.f I I ",
"* : 3 5 @ & ; 3 3 4 3 4 5 5 3 * 7 5 5 0 w w w w w 4 7 a 0 e p p p h h p n.(./.m j C K K K I e x $.w B I K I I K ] g $.$.e B I B ",
"* * 3 3 + - * : 3 3 3 4 4 5 * ; 6 4 0 8 0 w w w 8 ; t 4 e i p p p h p n.).(.).!.9.C p m Y j 5 d 9 g I ) K K ^ Y j u d 9 g ^ K B ",
"* * 3 3 . % : 3 3 5 5 3 4 5 % * 3 5 8 0 e 0 0 w 5 & 3 w i e p p p e h D./.(.(.'.].(.Q.r.m j > 5 g I H I 9.B K ^ j 3 5 g I B { ] ",
"* * 3 5 * 3 3 3 * & i e 3 5 5 5 8 8 0 * u ,.e w w 0 e e e p e p p n.R.(.(./.(.).'.].[.`.A.x j B I H ^ 0 N.H.P K K j B I I j i F.",
"* * 3 5 * 3 3 3 3 . ; d j 4 5 5 5 8 0 * + s s.e w w e e e e e p e A.J.E._.'.).).(./.[./.r.h K H H H K 0 ; C.A.N B K K ^ K H * d ",
"* > 3 5 * 3 3 3 3 $ X ; b p 4 5 8 8 8 4 O - d r.9 w w w e e p e h A.(.(.T.,.A.D.n.(.(.E./.A.C C H K C x * 8 B.m.l B B m m B 0 & ",
"* : 3 5 : 3 3 3 3 3 + X 6 $.5 5 5 8 8 8 3 + - $.x 0 e w e e w p Q.(.J.K A.H.(././.'.D.p z.b.C C m C C C e % 7 s.I m H H m x x 5 ",
": * 3 5 : 3 3 3 3 3 3 % . 3 9 5 8 8 9 0 8 3 $ * e w w e w w 9.E.(.!.m.A.(.(.!.~.(.'.[./.C p H C C C m m m e * ; j H m m B I x j ",
"* 0 4 5 : 3 : 4 i 3 4 4 3 3 5 5 5 4 d i 5 0 0 5 0 w w w 3.E.!.H.J.D.C !.(.J.n.n.F.-.~.{.(.g.p m m C H m m m m r j H B N Z.a.g x ",
"$ 8 5 4 : * - 7 5 3 4 4 5 5 5 5 3 7 u 9 8 8 0 w w w w w b.m.Y b.w A.J./.(./.(./.W.z.W.].).].J.H h m m m m m x m m j l $.:.q j x ",
". % 3 5 % & ; 3 1 3 3 4 5 5 4 * 6 7 5 9 8 0 0 0 w w w w w 0 0 E.E.!.!.!./.).(.!.)._.(.g.E.!.^.Q.r.h C C x m m x m g h #.0 e j x ",
"* * 3 5 $ - ; : 3 3 4 4 4 5 : ; 6 1 5 8 8 0 0 w 0 w w w 0 w Z.!.E.E.W.W.W.Q./.(.(.(.(.D.(.H.C C h p C m h x h m g e d 5 9 j h x ",
"; * 3 3 . % * 3 3 4 3 4 5 5 % & * 5 5 0 9 5 0 w 0 w w w r.J.!.Q.~.W.!.A.T.n.m.K.(.).(.(.(.].'./.T.v.j m m p j m e ; 3 9 j j x e ",
"* * 3 4 # : 3 3 3 3 i 5 4 5 * : 5 5 5 3 i x 8 0 w 0 w Z.!.!.n.H C D./.!.!.(.T.A.!.(.(.(.!.M.z.z.z.) h e b.c.g h p 5 e x x r x n.",
"* * 3 5 : 1 3 3 1 . 6 b w 3 5 5 5 5 8 * - #.^ 9 0 8 n.T.,.-.g.p r.K.E.E.!./.(.(.(./.)./.(.Q.W.z.w p m 3 7 B.n.g j j h j x r * n ",
"* * 3 4 * 3 3 3 3 + + 7 $.9 4 5 5 5 5 3 . ; #.I 5 w i 0 5 p E.W.!.W.W.E.E./.!.!.!.(.J.p J.!.!.'.H.p p e $ t s.{ g j p j j x 3 - ",
"* * 3 4 : 3 3 3 3 * . $ y H 4 5 5 5 5 5 * + 6 -.e 8 5 C A.T.W.K.!.H.3.J.J.T.W.!.W.!.D.m.R.e r.!.`.!.C p 4 & t w.g j p p j r e % ",
"* * 3 4 * 3 3 3 3 3 * . X 0 5 5 5 5 5 5 5 * . , e 4 9.W.E.J.R.W.W.E.z.D.n.9.E./.!.!.(._./.W.T.w 3.Q.H.e p 3 + 6 e p p p e e p 0 ",
"* * 3 4 : : 1 3 0 3 3 3 % * 5 5 5 4 e w 5 5 4 : 8 ,.E.K.r.w p E.W.!.W.!.W.R.W.W.!.!.(./.!.(./.D.e w h p p p w 4 e e e f [ } e e ",
"* * 3 4 : : * 6 9 3 3 3 3 5 4 4 4 4 i 9 5 5 8 0 9.m.Y 8 5 h D.!.H.D.R.T.K.R.!.!.!.z.z.E.!././.).W.z.p e p r p j e e f I >.e e e ",
"* * > 4 * % - 6 1 3 3 3 4 4 4 1 > 6 4 4 5 8 8 5 5 0 C z.H.W.G.) e 8 m.K.D.J.T.!.K.w w p ) ,.Y -.H.W.K.h e p p e e e i d 8 9 e e ",
"* * > 3 % - - : 1 3 3 3 3 4 : - 6 > 4 5 5 5 8 8 5 i m.M.,.h 0 8 w 0 Y E.K.E.K.W.T.e p e w e e e e H R.n.w p e e e 0 u 8 4 e e w ",
"* % 3 > + & % : 3 3 3 3 3 3 % - * 1 5 5 4 4 8 8 8 8 5 5 5 5 0 w w 8 n.!.T.K.W.W.R.e e e e i i e p e e p w e e e q 4 6 : w e w 0 ",
": 1 : > . % : 1 : 4 0 1 3 3 % % 1 5 5 3 e 9 5 8 8 8 8 0 0 0 0 w 5 h E.K.K.E.E.W.K.h w e e e e e e p e w [ e w e 0 % 1 0 e 0 j B ",
"* 0 4 3 * * : 1 * + u h 4 3 3 3 4 4 5 % 6 $.p 4 5 8 8 8 9 0 8 5 w D.m.i ,.^ T.K.K.D.w w e e e e e e e : a n.j w w w e w w 9 6 #.",
". % : 3 * * : 3 : . $ t x 3 3 3 5 4 4 * X 6 $.e 4 8 8 8 0 8 i 9.A.9.8 9 8 8 r.H.C z.M.p w e e e e e e 4 $ u $.g w w 0 w w w % - ",
"$ % * 3 * * * : 1 % . & u i 1 3 3 3 4 3 + $ 7 U 9 5 8 5 8 8 x h w 5 0 0 w w 8 h w 5 ^ m.w w w e w w w 0 % - u x q w w w w w 4 + ",
"* * ; 3 * * * : * : $ . - w 1 3 3 3 3 3 * . + 8 e 5 8 8 5 5 5 5 5 9 0 0 0 w w 8 w w 8 w w w w w w 0 0 w 4 $ $ 8 e 0 w w 8 5 9 : ",
"* * * 3 * * * 1 4 1 * % . % 3 3 3 3 9 5 3 3 % $ 4 5 5 5 9 e 5 8 8 9 8 8 8 9 9 p w 0 w w w w w w 0 e h 0 0 5 % % 5 0 0 9 e g 9 9 ",
"* * * > * * * 3 5 * 3 3 3 1 3 3 1 4 u 5 3 4 3 4 4 5 5 5 i i 5 8 8 8 8 8 9 9 i b 9 9 0 w w w 0 9 e b b 9 0 9 9 9 9 9 9 e $.i 9 9 ",
"* * * > * % - ; : : 3 3 3 3 1 1 > 6 3 2 3 4 5 5 5 4 4 7 6 4 5 5 5 8 5 5 9 5 t 3 9 0 0 0 0 9 9 9 u 7 3 9 0 9 0 9 8 9 0 u 6 1 5 5 ",
"% % * : @ & - * : * 3 : 3 3 : * ; ; : 3 3 3 4 4 5 1 6 6 > 4 5 5 5 5 5 5 4 7 > 5 0 8 9 9 9 9 5 5 7 3 5 9 0 0 0 8 8 9 8 6 * 5 5 5 ",
"% % * * + & % * * * * 3 3 3 % = & % 1 3 3 3 3 4 1 * ; * 1 5 4 4 5 5 5 1 6 ; 1 5 8 5 5 8 8 8 3 6 ; : 5 5 5 8 8 8 5 3 6 * 1 5 5 4 ",
"% % * * . $ % * * 3 1 * 3 1 + + % 1 3 3 9 1 3 5 : + % 1 4 4 0 9 3 5 4 % & : 5 5 0 e 5 5 8 5 & % : 5 5 0 e 5 5 8 3 $ % 1 5 4 w 9 ",
"% % * * @ % * * % & u 0 * : * * 3 3 3 % y x 5 3 3 : 3 4 5 1 6 $.f 2 5 1 1 5 5 5 * d ^ 9 4 5 1 3 5 5 5 > b H 9 5 4 1 4 5 5 4 7 U ",
"% % * : % * * * % . & u w * 3 1 1 3 3 % + t U 5 3 4 3 4 4 3 . 6 b j 2 5 4 5 5 5 * + u $.9 5 5 5 5 5 5 % & a x 5 5 5 5 5 5 4 $ ; ",
"% % * * % * * * * O . & u 5 * 3 3 3 3 * . & 7 h 1 3 3 3 3 3 $ + ; i 9 4 5 5 5 5 3 . - t h 4 5 5 5 5 5 3 + ; 8 e 4 5 4 4 4 4 % + ",
"% % * * % % * * * % . X - 0 : * : 3 3 : % . $ 0 9 1 3 3 3 3 : O $ 6 0 4 4 4 4 4 4 * . - 0 9 4 5 5 5 4 4 * . ; 5 5 4 4 4 4 4 3 $ ",
"% % * * % % * * * % % .   * : * * : 1 : * % . + 1 1 3 3 3 3 1 : @ . * 4 3 4 4 4 4 3 * . $ 3 4 4 4 4 4 4 3 % . $ 1 4 3 3 3 3 3 : ",
"% % * * # % * * * % * % % % : : : : : : : : : * : 2 2 1 2 1 1 1 1 : : 3 4 4 4 5 5 4 2 2 : 2 5 4 5 5 5 5 5 2 : : 2 2 3 2 2 3 2 2 ",
"% % % * * : * : : > 3 3 : 3 3 3 4 4 4 4 4 5 5 5 9 9 9 9 0 9 0 0 0 0 0 0 0 w 0 w w 0 w e e e w e e e e 0 w e w w 0 e e e 0 0 0 0 ",
"% 4 * % % % % % % * % > 0 * * * * * * * , * 3 p 3 : 1 1 3 3 3 3 1 4 x 3 3 3 3 3 3 3 3 1 w x 3 3 3 3 3 3 3 3 1 0 x 4 3 3 3 3 3 3 ",
"X ; * % % % % % % * @ & 4 * * * * * * * 1 % & 5 3 3 3 1 3 3 3 3 * * 8 4 3 3 3 3 3 3 4 : ; 0 4 3 3 3 3 3 3 3 : ; 5 2 3 3 3 3 1 3 ",
"  . % % % % % % % * + . % * * * * * * * : % . $ * 1 1 3 1 1 3 3 * . % 1 3 3 3 3 1 3 3 * . % 3 3 1 3 3 3 3 3 * O $ : 3 3 3 3 3 3 ",
"$ @ % % @ % % % % % % % * * * * * * * * * * * * : 3 : 3 3 1 3 3 1 * : 3 3 3 3 3 3 3 3 3 * 1 3 3 3 1 3 3 3 3 3 * : 3 3 3 3 3 3 1 ",
"% % % % % % % % % % % * * * * * * * * * * * * : * : > > 3 1 1 3 3 1 3 3 3 3 3 3 3 3 3 3 3 3 3 3 3 3 3 3 3 3 3 3 3 3 3 3 3 1 1 : "
};
